<?xml version="1.0" encoding="UTF-8"?>
<svg version="1.1" xmlns="http://www.w3.org/2000/svg" width="200" height="200">
<path d="M0 0 C66 0 132 0 200 0 C200 66 200 132 200 200 C134 200 68 200 0 200 C0 134 0 68 0 0 Z " fill="#FEFEFE" transform="translate(0,0)"/>
<path d="M0 0 C0.99 0.33 1.98 0.66 3 1 C2.67 1.99 2.34 2.98 2 4 C1.37351562 4.04898438 0.74703125 4.09796875 0.1015625 4.1484375 C-0.71570313 4.22320312 -1.53296875 4.29796875 -2.375 4.375 C-3.18710938 4.44460937 -3.99921875 4.51421875 -4.8359375 4.5859375 C-7.20334191 4.82892588 -7.20334191 4.82892588 -9 7 C-8.67673447 10.59679066 -8.67673447 10.59679066 -8 14 C-5.36 14.66 -2.72 15.32 0 16 C0 14.68 0 13.36 0 12 C-1.65 12 -3.3 12 -5 12 C-5 11.01 -5 10.02 -5 9 C-2.03 9 0.94 9 4 9 C4.144375 7.700625 4.28875 6.40125 4.4375 5.0625 C4.875 1.125 4.875 1.125 6 0 C10.54066511 -0.37838876 12.97016358 -0.55782806 17 1.625 C19 4 19 4 19.4375 7 C19.02914449 9.80015206 18.47068318 11.61013983 17 14 C18.485 15.485 18.485 15.485 20 17 C19.505 18.485 19.505 18.485 19 20 C20.32 20.66 21.64 21.32 23 22 C23 22.99 23 23.98 23 25 C22.37351563 24.97679688 21.74703125 24.95359375 21.1015625 24.9296875 C20.28429687 24.91164063 19.46703125 24.89359375 18.625 24.875 C17.81289062 24.85179688 17.00078125 24.82859375 16.1640625 24.8046875 C13.78657757 24.78629949 13.78657757 24.78629949 12 27 C11.71397838 31.14509433 11.71397838 31.14509433 13 35 C14.89533342 35.46523063 14.89533342 35.46523063 17.0625 35.625 C18.361875 35.74875 19.66125 35.8725 21 36 C21 35.01 21 34.02 21 33 C19.35 33 17.7 33 16 33 C16 32.01 16 31.02 16 30 C18.97 30 21.94 30 25 30 C25 32.64 25 35.28 25 38 C21.34387956 40.33991708 18.26792624 40.37437949 14 40 C10.4613006 38.34860695 9.18929847 37.28394771 7 34 C6.34 35.98 5.68 37.96 5 40 C-0.27403532 40.43950294 -0.27403532 40.43950294 -3 40 C-5.3125 37.5625 -5.3125 37.5625 -7 35 C-7.99 34.67 -8.98 34.34 -10 34 C-10 35.65 -10 37.3 -10 39 C-11.98 39.495 -11.98 39.495 -14 40 C-14 33.73 -14 27.46 -14 21 C-11.03 20.67 -8.06 20.34 -5 20 C-5.928125 19.5875 -6.85625 19.175 -7.8125 18.75 C-10.98587642 17.00775412 -12.40176947 16.19646106 -14 13 C-14.5 9.5625 -14.5 9.5625 -14 6 C-9.51060081 0.56546414 -6.91461387 -0.24261803 0 0 Z " fill="#F1F3F3" transform="translate(77,76)"/>
<path d="M0 0 C0 2.31 0 4.62 0 7 C1.4540625 6.87625 1.4540625 6.87625 2.9375 6.75 C9.06828087 6.76243566 14.21188301 9.49003454 18.8125 13.375 C22.77418006 18.12901607 25.40208842 21.72192838 26 28 C25.34 27.67 24.68 27.34 24 27 C24 26.34 24 25.68 24 25 C20.2413894 23.38316751 16.55195434 22.33500975 12.5625 21.4375 C11.47066406 21.18871094 10.37882812 20.93992187 9.25390625 20.68359375 C6.17840113 20.03747923 3.10358221 19.49151754 0 19 C0 21.31 0 23.62 0 26 C-3.90285767 24.41332422 -6.33520982 21.86649519 -9.25 18.875 C-10.14203125 17.96492188 -11.0340625 17.05484375 -11.953125 16.1171875 C-12.62859375 15.41851562 -13.3040625 14.71984375 -14 14 C-12.41438362 10.14406926 -9.93490046 7.66783709 -7 4.75 C-6.113125 3.85796875 -5.22625 2.9659375 -4.3125 2.046875 C-2 0 -2 0 0 0 Z " fill="#3EB2B7" transform="translate(24,82)"/>
<path d="M0 0 C1.29349365 0.00523682 2.5869873 0.01047363 3.91967773 0.01586914 C4.9496714 0.01799156 4.9496714 0.01799156 6.00047302 0.02015686 C8.20144949 0.0257706 10.40232557 0.03832532 12.60327148 0.05102539 C14.09220231 0.05603863 15.58113473 0.06060184 17.07006836 0.06469727 C20.72703954 0.07489518 24.38379265 0.0944676 28.04077148 0.11352539 C28.04077148 6.38352539 28.04077148 12.65352539 28.04077148 19.11352539 C26.72077148 19.11352539 25.40077148 19.11352539 24.04077148 19.11352539 C24.04077148 14.16352539 24.04077148 9.21352539 24.04077148 4.11352539 C22.06077148 4.11352539 20.08077148 4.11352539 18.04077148 4.11352539 C18.04077148 9.06352539 18.04077148 14.01352539 18.04077148 19.11352539 C16.72077148 19.11352539 15.40077148 19.11352539 14.04077148 19.11352539 C14.04077148 14.16352539 14.04077148 9.21352539 14.04077148 4.11352539 C9.42077148 4.11352539 4.80077148 4.11352539 0.04077148 4.11352539 C0.04077148 5.43352539 0.04077148 6.75352539 0.04077148 8.11352539 C2.68077148 8.11352539 5.32077148 8.11352539 8.04077148 8.11352539 C8.04077148 9.43352539 8.04077148 10.75352539 8.04077148 12.11352539 C5.40077148 12.11352539 2.76077148 12.11352539 0.04077148 12.11352539 C0.04077148 13.43352539 0.04077148 14.75352539 0.04077148 16.11352539 C3.01077148 16.11352539 5.98077148 16.11352539 9.04077148 16.11352539 C9.04077148 17.10352539 9.04077148 18.09352539 9.04077148 19.11352539 C4.75077148 19.11352539 0.46077148 19.11352539 -3.95922852 19.11352539 C-3.98606839 16.13429946 -4.00598889 13.15531244 -4.02172852 10.17602539 C-4.03010742 9.32588867 -4.03848633 8.47575195 -4.04711914 7.59985352 C-4.0503418 6.7909668 -4.05356445 5.98208008 -4.05688477 5.14868164 C-4.06212158 4.39981689 -4.0673584 3.65095215 -4.07275391 2.87939453 C-3.87474189 -0.20065047 -3.11718222 0.119585 0 0 Z " fill="#5BBABE" transform="translate(115.959228515625,75.886474609375)"/>
<path d="M0 0 C1.32 0 2.64 0 4 0 C4 2.64 4 5.28 4 8 C6.64 8 9.28 8 12 8 C12 5.36 12 2.72 12 0 C18.6 0 25.2 0 32 0 C32 0.99 32 1.98 32 3 C30.02 3 28.04 3 26 3 C26 8.28 26 13.56 26 19 C24.68 18.67 23.36 18.34 22 18 C22 13.38 22 8.76 22 4 C20.35 4 18.7 4 17 4 C16.67 8.95 16.34 13.9 16 19 C14.68 18.67 13.36 18.34 12 18 C12 16.02 12 14.04 12 12 C9.36 12 6.72 12 4 12 C4 14.31 4 16.62 4 19 C2.68 19 1.36 19 0 19 C0 12.73 0 6.46 0 0 Z " fill="#4BB7BC" transform="translate(103,97)"/>
<path d="M0 0 C3.18449782 0.05154763 4.33272985 0.357312 7.25 1.9375 C9.25 4.3125 9.25 4.3125 9.6875 7.3125 C9.27914449 10.11265206 8.72068318 11.92263983 7.25 14.3125 C7.9925 14.993125 7.9925 14.993125 8.75 15.6875 C10.25 17.3125 10.25 17.3125 10.25 19.3125 C7.875 19 7.875 19 5.25 18.3125 C4.59 17.3225 3.93 16.3325 3.25 15.3125 C1.19074861 14.58867533 1.19074861 14.58867533 -0.75 14.3125 C-0.75 15.9625 -0.75 17.6125 -0.75 19.3125 C-2.07 19.3125 -3.39 19.3125 -4.75 19.3125 C-4.77683987 16.33327407 -4.79676037 13.35428705 -4.8125 10.375 C-4.82087891 9.52486328 -4.82925781 8.67472656 -4.83789062 7.79882812 C-4.84111328 6.98994141 -4.84433594 6.18105469 -4.84765625 5.34765625 C-4.85289307 4.5987915 -4.85812988 3.84992676 -4.86352539 3.07836914 C-4.64512749 -0.31877499 -3.52443377 0.29370281 0 0 Z " fill="#63BCC0" transform="translate(86.75,75.6875)"/>
<path d="M0 0 C3.80635497 3.20760251 7.54563567 6.40746109 11 10 C11.33 6.7 11.66 3.4 12 0 C13.32 0.33 14.64 0.66 16 1 C16 6.94 16 12.88 16 19 C12.33228155 17.16614077 10.53165004 15.74937171 7.75 12.875 C7.04359375 12.15054688 6.3371875 11.42609375 5.609375 10.6796875 C5.07828125 10.12539062 4.5471875 9.57109375 4 9 C3.67 12.3 3.34 15.6 3 19 C1.68 19 0.36 19 -1 19 C-1.02683987 16.02077407 -1.04676037 13.04178705 -1.0625 10.0625 C-1.07087891 9.21236328 -1.07925781 8.36222656 -1.08789062 7.48632812 C-1.09111328 6.67744141 -1.09433594 5.86855469 -1.09765625 5.03515625 C-1.10289307 4.2862915 -1.10812988 3.53742676 -1.11352539 2.76586914 C-1 1 -1 1 0 0 Z " fill="#69BABD" transform="translate(147,76)"/>
<path d="M0 0 C0.99 0.33 1.98 0.66 3 1 C2.67 1.99 2.34 2.98 2 4 C1.37351562 4.04898438 0.74703125 4.09796875 0.1015625 4.1484375 C-0.71570313 4.22320312 -1.53296875 4.29796875 -2.375 4.375 C-3.18710938 4.44460937 -3.99921875 4.51421875 -4.8359375 4.5859375 C-7.20334191 4.82892588 -7.20334191 4.82892588 -9 7 C-8.67673447 10.59679066 -8.67673447 10.59679066 -8 14 C-5.36 14.66 -2.72 15.32 0 16 C0 14.68 0 13.36 0 12 C-1.65 12 -3.3 12 -5 12 C-5 11.01 -5 10.02 -5 9 C-2.03 9 0.94 9 4 9 C4.29296875 15.0546875 4.29296875 15.0546875 4 17 C-0.01858595 19.6790573 -3.27641721 19.69610694 -8 19 C-10.87029869 17.20606332 -12.49131638 16.01736724 -14 13 C-14.375 9.6875 -14.375 9.6875 -14 6 C-9.51060081 0.56546414 -6.91461387 -0.24261803 0 0 Z " fill="#52B9BD" transform="translate(77,76)"/>
<path d="M0 0 C0.33 1.32 0.66 2.64 1 4 C0.37351562 3.97679688 -0.25296875 3.95359375 -0.8984375 3.9296875 C-1.71570313 3.91164063 -2.53296875 3.89359375 -3.375 3.875 C-4.59316406 3.84019531 -4.59316406 3.84019531 -5.8359375 3.8046875 C-8.21342243 3.78629949 -8.21342243 3.78629949 -10 6 C-10.28602162 10.14509433 -10.28602162 10.14509433 -9 14 C-7.10466658 14.46523063 -7.10466658 14.46523063 -4.9375 14.625 C-3.638125 14.74875 -2.33875 14.8725 -1 15 C-1 14.01 -1 13.02 -1 12 C-2.65 12 -4.3 12 -6 12 C-6 11.01 -6 10.02 -6 9 C-3.03 9 -0.06 9 3 9 C3 11.64 3 14.28 3 17 C-0.65612044 19.33991708 -3.73207376 19.37437949 -8 19 C-11.5386994 17.34860695 -12.81070153 16.28394771 -15 13 C-15.3993489 9.90504605 -15.6393387 7.96054135 -15 5 C-10.59778201 -0.41811445 -6.72108976 -0.67210898 0 0 Z " fill="#5BBDC1" transform="translate(99,97)"/>
<path d="M0 0 C0.99 0.33 1.98 0.66 3 1 C2.67 1.99 2.34 2.98 2 4 C1.37351563 4.04898438 0.74703125 4.09796875 0.1015625 4.1484375 C-0.71570313 4.22320312 -1.53296875 4.29796875 -2.375 4.375 C-3.18710938 4.44460937 -3.99921875 4.51421875 -4.8359375 4.5859375 C-7.20334191 4.82892588 -7.20334191 4.82892588 -9 7 C-8.83582968 10.56592619 -8.83582968 10.56592619 -8 14 C-5.29120665 15.35439668 -2.99066732 15.06501451 0 15 C0.33 14.01 0.66 13.02 1 12 C-0.98 12 -2.96 12 -5 12 C-5 11.01 -5 10.02 -5 9 C-2.03 9 0.94 9 4 9 C4.29296875 15.0546875 4.29296875 15.0546875 4 17 C-0.01858595 19.6790573 -3.27641721 19.69610694 -8 19 C-10.87029869 17.20606332 -12.49131638 16.01736724 -14 13 C-14.375 9.6875 -14.375 9.6875 -14 6 C-9.51060081 0.56546414 -6.91461387 -0.24261803 0 0 Z " fill="#53BBBF" transform="translate(178,76)"/>
<path d="M0 0 C3.96 0 7.92 0 12 0 C12 1.32 12 2.64 12 4 C9.36 4 6.72 4 4 4 C4 5.32 4 6.64 4 8 C6.64 8 9.28 8 12 8 C12 9.32 12 10.64 12 12 C9.36 12 6.72 12 4 12 C4 13.32 4 14.64 4 16 C6.97 16 9.94 16 13 16 C13 16.99 13 17.98 13 19 C8.71 19 4.42 19 0 19 C0 12.73 0 6.46 0 0 Z " fill="#69BABE" transform="translate(98,76)"/>
<path d="M0 0 C2.97 0 5.94 0 9 0 C8.01 0.495 8.01 0.495 7 1 C7 1.66 7 2.32 7 3 C5.68 3 4.36 3 3 3 C3 5.31 3 7.62 3 10 C7.455 9.505 7.455 9.505 12 9 C11.95875 9.78375 11.9175 10.5675 11.875 11.375 C11.71271266 14.16116119 11.71271266 14.16116119 14 16 C14 16.99 14 17.98 14 19 C11.18127263 18.61121002 10.22804402 18.29189635 8.4375 16 C7.963125 15.34 7.48875 14.68 7 14 C6.01 13.67 5.02 13.34 4 13 C4 14.65 4 16.3 4 18 C2.68 18.33 1.36 18.66 0 19 C0 12.73 0 6.46 0 0 Z " fill="#3EB8BC" transform="translate(63,97)"/>
<path d="M0 0 C7.11008111 -0.4820394 7.11008111 -0.4820394 11 1.625 C13 4 13 4 13.4375 7.125 C13 10 13 10 11 12 C8.27130593 11.96712417 5.7033382 11.43602229 3 11 C3 10.67 3 10.34 3 10 C4.65 9.67 6.3 9.34 8 9 C8 7.68 8 6.36 8 5 C6.35 4.67 4.7 4.34 3 4 C3 3.34 3 2.68 3 2 C2.34 2 1.68 2 1 2 C1 6.29 1 10.58 1 15 C0.67 15 0.34 15 0 15 C0 10.05 0 5.1 0 0 Z " fill="#4CBABE" transform="translate(83,76)"/>
<path d="M0 0 C2.5625 1.5625 2.5625 1.5625 5 4 C4.8125 7.75 4.8125 7.75 4 11 C3.67 10.34 3.34 9.68 3 9 C2.01 9.495 2.01 9.495 1 10 C-1.3329866 10.04022391 -3.66706666 10.04320247 -6 10 C-6 7.69 -6 5.38 -6 3 C-4.68 3 -3.36 3 -2 3 C-2 2.34 -2 1.68 -2 1 C-1.34 0.67 -0.68 0.34 0 0 Z " fill="#71C1C4" transform="translate(72,97)"/>
<path d="M0 0 C0.99 0 1.98 0 3 0 C3 6.27 3 12.54 3 19 C1.68 19 0.36 19 -1 19 C-1 14.05 -1 9.1 -1 4 C-2.98 4 -4.96 4 -7 4 C-7 3.67 -7 3.34 -7 3 C-5.02 3 -3.04 3 -1 3 C-0.67 2.01 -0.34 1.02 0 0 Z " fill="#66B9BC" transform="translate(141,76)"/>
<path d="M0 0 C1.32 0 2.64 0 4 0 C4 2.64 4 5.28 4 8 C3.34 8 2.68 8 2 8 C1.67 9.65 1.34 11.3 1 13 C1.66 13 2.32 13 3 13 C3 12.34 3 11.68 3 11 C6.3 11 9.6 11 13 11 C13 13.31 13 15.62 13 18 C12.67 18 12.34 18 12 18 C12 16.02 12 14.04 12 12 C9.36 12 6.72 12 4 12 C4 14.31 4 16.62 4 19 C2.68 19 1.36 19 0 19 C0 12.73 0 6.46 0 0 Z " fill="#64B2B5" transform="translate(103,97)"/>
<path d="M0 0 C0.99 0.33 1.98 0.66 3 1 C2.67 1.99 2.34 2.98 2 4 C1.39671875 4.03738281 0.7934375 4.07476562 0.171875 4.11328125 C-6.04305443 4.51300034 -6.04305443 4.51300034 -11 8 C-11.77772405 10.33317216 -12.42415568 12.61435923 -13 15 C-14.56935594 11.86128812 -14.35201103 9.46144178 -14 6 C-9.51060081 0.56546414 -6.91461387 -0.24261803 0 0 Z " fill="#56BABE" transform="translate(77,76)"/>
<path d="M0 0 C5.28 0.33 10.56 0.66 16 1 C16 1.33 16 1.66 16 2 C11.38 2 6.76 2 2 2 C2 3.32 2 4.64 2 6 C4.64 6 7.28 6 10 6 C10 7.32 10 8.64 10 10 C7.36 10 4.72 10 2 10 C1.67 11.32 1.34 12.64 1 14 C-0.5456757 9.36297289 -0.05735628 4.87528349 0 0 Z " fill="#58B0B3" transform="translate(114,78)"/>
<path d="M0 0 C1.485 0.99 1.485 0.99 3 2 C3.2208564 4.95064148 3.28060989 7.68368231 3.1875 10.625 C3.17396484 11.42679688 3.16042969 12.22859375 3.14648438 13.0546875 C3.11109051 15.03674378 3.05728234 17.01845551 3 19 C1.68 19 0.36 19 -1 19 C-1.02683987 16.02077407 -1.04676037 13.04178705 -1.0625 10.0625 C-1.07087891 9.21236328 -1.07925781 8.36222656 -1.08789062 7.48632812 C-1.09111328 6.67744141 -1.09433594 5.86855469 -1.09765625 5.03515625 C-1.10289307 4.2862915 -1.10812988 3.53742676 -1.11352539 2.76586914 C-1 1 -1 1 0 0 Z " fill="#6AC2C6" transform="translate(147,76)"/>
<path d="M0 0 C0.33 0.99 0.66 1.98 1 3 C7.435 2.505 7.435 2.505 14 2 C14 5.63 14 9.26 14 13 C13.34 13 12.68 13 12 13 C12 10.69 12 8.38 12 6 C8.7 6 5.4 6 2 6 C2 6.66 2 7.32 2 8 C1.34 8 0.68 8 0 8 C0 5.36 0 2.72 0 0 Z " fill="#40B6BB" transform="translate(104,102)"/>
<path d="M0 0 C0.99 0 1.98 0 3 0 C3 6.27 3 12.54 3 19 C2.01 19 1.02 19 0 19 C0 12.73 0 6.46 0 0 Z " fill="#4DBEC2" transform="translate(79,97)"/>
<path d="M0 0 C3.96 0 7.92 0 12 0 C12 1.32 12 2.64 12 4 C9.36 4 6.72 4 4 4 C4.99 3.67 5.98 3.34 7 3 C7 2.34 7 1.68 7 1 C5.02 1 3.04 1 1 1 C1 5.95 1 10.9 1 16 C2.32 16.66 3.64 17.32 5 18 C3.35 18.33 1.7 18.66 0 19 C0 12.73 0 6.46 0 0 Z " fill="#88BFC1" transform="translate(98,76)"/>
<path d="M0 0 C2.97 0 5.94 0 9 0 C9 2.64 9 5.28 9 8 C7.35 8.33 5.7 8.66 4 9 C4.66 7.02 5.32 5.04 6 3 C4.02 3 2.04 3 0 3 C0 2.01 0 1.02 0 0 Z " fill="#4EB5B9" transform="translate(173,85)"/>
<path d="M0 0 C0.12117188 0.63808594 0.24234375 1.27617188 0.3671875 1.93359375 C0.53476563 2.75988281 0.70234375 3.58617188 0.875 4.4375 C1.03742188 5.26121094 1.19984375 6.08492188 1.3671875 6.93359375 C1.57601562 7.61550781 1.78484375 8.29742187 2 9 C2.66 9.33 3.32 9.66 4 10 C4 10.66 4 11.32 4 12 C1.6875 12.25 1.6875 12.25 -1 12 C-3.5605863 9.70430194 -3.96411212 8.29906565 -4.375 4.875 C-4.189375 3.451875 -4.189375 3.451875 -4 2 C-1 0 -1 0 0 0 Z " fill="#4EB8BC" transform="translate(88,102)"/>
<path d="M0 0 C0.33 0 0.66 0 1 0 C1 4.95 1 9.9 1 15 C-1.04119788 13.38405168 -3.04072937 11.7143618 -5 10 C-5 9.34 -5 8.68 -5 8 C-3.68 8 -2.36 8 -1 8 C-1.020625 6.865625 -1.04125 5.73125 -1.0625 4.5625 C-1 1 -1 1 0 0 Z " fill="#3DB8BD" transform="translate(161,80)"/>
<path d="M0 0 C0.66 0.33 1.32 0.66 2 1 C1.54109375 1.51949219 1.0821875 2.03898437 0.609375 2.57421875 C-5.28819354 8.86955602 -5.28819354 8.86955602 -10 16 C-10.66 14.68 -11.32 13.36 -12 12 C-8.04 8.04 -4.08 4.08 0 0 Z " fill="#5EBCC0" transform="translate(22,82)"/>
<path d="M0 0 C2.97 0 5.94 0 9 0 C9 0.33 9 0.66 9 1 C6.36 1 3.72 1 1 1 C1.33 5.62 1.66 10.24 2 15 C2.66 14.34 3.32 13.68 4 13 C4 14.65 4 16.3 4 18 C2.68 18.33 1.36 18.66 0 19 C0 12.73 0 6.46 0 0 Z " fill="#6BB1B4" transform="translate(63,97)"/>
<path d="M0 0 C3.3 0 6.6 0 10 0 C10 2.31 10 4.62 10 7 C9.67 7 9.34 7 9 7 C9 5.02 9 3.04 9 1 C6.36 1 3.72 1 1 1 C1 3.31 1 5.62 1 8 C-0.32 7.67 -1.64 7.34 -3 7 C-2.67 5.35 -2.34 3.7 -2 2 C-1.34 2 -0.68 2 0 2 C0 1.34 0 0.68 0 0 Z " fill="#8EC2C4" transform="translate(106,108)"/>
<path d="M0 0 C1.98 0 3.96 0 6 0 C6 0.66 6 1.32 6 2 C5.01 2.33 4.02 2.66 3 3 C2.67 6.63 2.34 10.26 2 14 C1.34 14 0.68 14 0 14 C0 9.38 0 4.76 0 0 Z " fill="#35B7BC" transform="translate(99,77)"/>
<path d="M0 0 C0.66 0.33 1.32 0.66 2 1 C2 4.63 2 8.26 2 12 C0.35 10.68 -1.3 9.36 -3 8 C-2.5359375 7.13375 -2.5359375 7.13375 -2.0625 6.25 C-1.07416636 4.15705816 -0.4831387 2.25464725 0 0 Z " fill="#F6F7F8" transform="translate(96,82)"/>
<path d="M0 0 C1.65 0 3.3 0 5 0 C5.38218767 1.65614657 5.71395102 3.32457024 6 5 C5 6 5 6 2.4375 6.0625 C1.2309375 6.0315625 1.2309375 6.0315625 0 6 C0 4.02 0 2.04 0 0 Z " fill="#FAFBFB" transform="translate(86,80)"/>
<path d="M0 0 C1.65 0 3.3 0 5 0 C5.625 1.875 5.625 1.875 6 4 C5.34 4.66 4.68 5.32 4 6 C2.68 6 1.36 6 0 6 C0 4.02 0 2.04 0 0 Z " fill="#F9F9FA" transform="translate(67,101)"/>
<path d="M0 0 C2.64 0 5.28 0 8 0 C8 1.32 8 2.64 8 4 C5.36 4 2.72 4 0 4 C0 2.68 0 1.36 0 0 Z " fill="#6DBCBF" transform="translate(116,84)"/>
<path d="M0 0 C1.875 0.25 1.875 0.25 4 1 C5.72101535 3.58152302 6 4.84918025 6 8 C4.1875 7.8125 4.1875 7.8125 2 7 C0.1875 4.5625 0.1875 4.5625 -1 2 C-0.67 1.34 -0.34 0.68 0 0 Z " fill="#5BBBBF" transform="translate(71,108)"/>
<path d="M0 0 C0.66 1.32 1.32 2.64 2 4 C0.68 4.33 -0.64 4.66 -2 5 C-1.34 5.66 -0.68 6.32 0 7 C-6.625 7.25 -6.625 7.25 -10 5 C-8.68 5 -7.36 5 -6 5 C-6 4.34 -6 3.68 -6 3 C-4.02 3 -2.04 3 0 3 C0 2.01 0 1.02 0 0 Z " fill="#6EBBBE" transform="translate(98,109)"/>
<path d="M0 0 C1.98 0 3.96 0 6 0 C6 3.96 6 7.92 6 12 C6.66 12 7.32 12 8 12 C8.33 13.32 8.66 14.64 9 16 C7.68 15.67 6.36 15.34 5 15 C5 10.38 5 5.76 5 1 C3.35 1 1.7 1 0 1 C0 0.67 0 0.34 0 0 Z " fill="#9DC3C4" transform="translate(120,100)"/>
<path d="M0 0 C0.80050781 0.03480469 1.60101563 0.06960937 2.42578125 0.10546875 C3.63814453 0.14607422 3.63814453 0.14607422 4.875 0.1875 C5.48988281 0.22230469 6.10476562 0.25710937 6.73828125 0.29296875 C6.73828125 1.28296875 6.73828125 2.27296875 6.73828125 3.29296875 C2.77828125 3.29296875 -1.18171875 3.29296875 -5.26171875 3.29296875 C-2.26171875 0.29296875 -2.26171875 0.29296875 0 0 Z " fill="#50B5B9" transform="translate(104.26171875,91.70703125)"/>
<path d="M0 0 C7.11008111 -0.4820394 7.11008111 -0.4820394 11 1.625 C13 4 13 4 13.3125 7.25 C13.1578125 8.61125 13.1578125 8.61125 13 10 C12.67 8.68 12.34 7.36 12 6 C11.34 6 10.68 6 10 6 C8.375 4.625 8.375 4.625 7 3 C7 2.34 7 1.68 7 1 C4.69 1 2.38 1 0 1 C0 0.67 0 0.34 0 0 Z " fill="#77BFC2" transform="translate(83,76)"/>
<path d="M0 0 C6.625 -0.125 6.625 -0.125 10 1 C9.67 1.99 9.34 2.98 9 4 C6.36 4 3.72 4 1 4 C1.33 3.34 1.66 2.68 2 2 C1.34 1.34 0.68 0.68 0 0 Z " fill="#7ABFC1" transform="translate(171,76)"/>
<path d="M0 0 C6.625 -0.125 6.625 -0.125 10 1 C9.67 1.99 9.34 2.98 9 4 C6.36 4 3.72 4 1 4 C1.33 3.34 1.66 2.68 2 2 C1.34 1.34 0.68 0.68 0 0 Z " fill="#7ABFC2" transform="translate(70,76)"/>
<path d="M0 0 C2.31 0 4.62 0 7 0 C7 1.98 7 3.96 7 6 C6.67 5.01 6.34 4.02 6 3 C4.02 3 2.04 3 0 3 C0 2.01 0 1.02 0 0 Z " fill="#47B9BD" transform="translate(93,106)"/>
<path d="M0 0 C2.97 0.495 2.97 0.495 6 1 C6 1.66 6 2.32 6 3 C6.66 3.33 7.32 3.66 8 4 C5.03 4 2.06 4 -1 4 C-0.67 2.68 -0.34 1.36 0 0 Z " fill="#5CBDC1" transform="translate(70,91)"/>
<path d="M0 0 C0.33 0 0.66 0 1 0 C1 3.63 1 7.26 1 11 C1.66 11 2.32 11 3 11 C3 11.99 3 12.98 3 14 C2.01 14.33 1.02 14.66 0 15 C0 10.05 0 5.1 0 0 Z " fill="#93C1C3" transform="translate(130,80)"/>
<path d="M0 0 C1.65 0 3.3 0 5 0 C4.67 1.32 4.34 2.64 4 4 C3.34 4 2.68 4 2 4 C1.34 5.32 0.68 6.64 0 8 C0 5.36 0 2.72 0 0 Z " fill="#8CBEBF" transform="translate(115,97)"/>
<path d="M0 0 C0.99 0 1.98 0 3 0 C2.42415568 2.38564077 1.77772405 4.66682784 1 7 C0.34 7 -0.32 7 -1 7 C-1.04254356 5.00045254 -1.04080783 2.99958364 -1 1 C-0.67 0.67 -0.34 0.34 0 0 Z " fill="#41B7BB" transform="translate(166,80)"/>
<path d="M0 0 C1.98 0 3.96 0 6 0 C5.67 0.99 5.34 1.98 5 3 C2.36 3 -0.28 3 -3 3 C-2.01 2.67 -1.02 2.34 0 2 C0 1.34 0 0.68 0 0 Z " fill="#71BEC1" transform="translate(105,77)"/>
<path d="M0 0 C1.9375 0.8125 1.9375 0.8125 4 2 C4.33 2.99 4.66 3.98 5 5 C3.35 4.67 1.7 4.34 0 4 C-0.33 3.01 -0.66 2.02 -1 1 C-0.67 0.67 -0.34 0.34 0 0 Z " fill="#54B8BC" transform="translate(92,90)"/>
<path d="M0 0 C0.33 0 0.66 0 1 0 C1 1.65 1 3.3 1 5 C1.66 5 2.32 5 3 5 C3.33 4.01 3.66 3.02 4 2 C3.25 6.75 3.25 6.75 1 9 C-0.4783226 6.04335481 -0.06032783 3.25770263 0 0 Z " fill="#66BBBE" transform="translate(164,82)"/>
<path d="M0 0 C0.66 0.33 1.32 0.66 2 1 C2 2.98 2 4.96 2 7 C1.01 7.495 1.01 7.495 0 8 C-0.38063221 5.6739143 -0.71269945 3.33944736 -1 1 C-0.67 0.67 -0.34 0.34 0 0 Z " fill="#41B6BA" transform="translate(65,83)"/>
</svg>
